<svg width="24" height="24" viewBox="0 0 24 24" fill="none" xmlns="http://www.w3.org/2000/svg">
<path d="M5 3C3.90694 3 3 3.90694 3 5V19C3 20.0931 3.90694 21 5 21H19C20.0931 21 21 20.0931 21 19V5C21 3.90694 20.0931 3 19 3H5ZM5 5H19V9H5V5ZM7 6C6.73478 6 6.48043 6.10536 6.29289 6.29289C6.10536 6.48043 6 6.73478 6 7C6 7.26522 6.10536 7.51957 6.29289 7.70711C6.48043 7.89464 6.73478 8 7 8C7.26522 8 7.51957 7.89464 7.70711 7.70711C7.89464 7.51957 8 7.26522 8 7C8 6.73478 7.89464 6.48043 7.70711 6.29289C7.51957 6.10536 7.26522 6 7 6ZM10 6C9.73478 6 9.48043 6.10536 9.29289 6.29289C9.10536 6.48043 9 6.73478 9 7C9 7.26522 9.10536 7.51957 9.29289 7.70711C9.48043 7.89464 9.73478 8 10 8C10.2652 8 10.5196 7.89464 10.7071 7.70711C10.8946 7.51957 11 7.26522 11 7C11 6.73478 10.8946 6.48043 10.7071 6.29289C10.5196 6.10536 10.2652 6 10 6ZM13 6V8H17V6H13ZM5 11H19V19H5V11ZM7 13V17H12V13H7ZM14 13V17H17V13H14Z" fill="url(#paint0_linear_503_72)"/>
<defs>
<linearGradient id="paint0_linear_503_72" x1="3" y1="3" x2="23.6585" y2="6.89309" gradientUnits="userSpaceOnUse">
<stop stop-color="#5645FE"/>
<stop offset="1" stop-color="#7940EF"/>
</linearGradient>
</defs>
</svg>
